<?xml version="1.0" encoding="utf-8"?>
<!-- Generator: Adobe Illustrator 24.2.0, SVG Export Plug-In . SVG Version: 6.00 Build 0)  -->
<svg version="1.1" id="圖層_1" xmlns="http://www.w3.org/2000/svg" xmlns:xlink="http://www.w3.org/1999/xlink" x="0px" y="0px"
	 viewBox="0 0 100 35" style="enable-background:new 0 0 100 35;" xml:space="preserve">
<style type="text/css">
	.st0{fill:#E4002B;}
	.st1{fill:#FFFFFF;}
	.st2{font-family:'FZLTZHB--B51-0';}
	.st3{font-size:12px;}
	.st4{display:none;}
	.st5{display:inline;}
	.st6{display:inline;fill:#FFFFFF;}
</style>
<g>
	<path class="st0" d="M97.5,35h-95C1.1,35,0,33.7,0,32.1V2.9C0,1.3,1.1,0,2.5,0h95c1.4,0,2.5,1.3,2.5,2.9v29.2
		C100,33.7,98.9,35,97.5,35z"/>
</g>
<text transform="matrix(1 0 0 1 34.5871 21.772)" class="st1 st2 st3">預訂快取</text>
<g id="圖層_2_1_" class="st4">
	<g class="st5">
		<path class="st0" d="M97.5,32.5h-95C1.1,32.5,0,31.4,0,30V5c0-1.4,1.1-2.5,2.5-2.5h95c1.4,0,2.5,1.1,2.5,2.5v25
			C100,31.4,98.9,32.5,97.5,32.5z"/>
	</g>
	<text transform="matrix(1 0 0 1 20.1455 21.772)" class="st6 st2 st3">零接觸外送</text>
</g>
<g id="圖層_3" class="st4">
</g>
<path class="st1" d="M30.3,16.6c0-0.6-0.5-1.1-1.1-1.1s-1.1,0.5-1.1,1.1v2.3h-0.5v-2.3c0-0.6-0.5-1.1-1.1-1.1s-1.1,0.5-1.1,1.1v2.3
	h-0.5v-2.3c0-0.6-0.5-1.1-1.1-1.1s-1.1,0.5-1.1,1.1v2.3h-0.6v-4c1.6-0.4,2.8-1.9,2.8-3.7c0-2.1-1.7-3.8-3.8-3.8s-3.8,1.7-3.8,3.8
	c0,1.7,1.1,3.1,2.7,3.7v6.3v0.1v2.6c0,1.3,0.8,2.3,1.7,2.3h6.9c0.9,0,1.7-1,1.7-2.3v-2.6c0-0.1,0-0.1,0-0.2L30.3,16.6L30.3,16.6z
	 M18.2,11.3c0-1.6,1.3-3,3-3c1.6,0,3,1.3,3,3c0,1.3-0.8,2.4-2,2.8v-2.5c0-0.6-0.5-1.1-1.1-1.1S20,11,20,11.6V14
	C18.9,13.5,18.2,12.5,18.2,11.3z"/>
<g>
	<path class="st1" d="M76.7,71.1c-0.4-2.3-2.7-4-5.1-3.6c-1.7,0.2-2.9,1.2-3.6,2.9c-0.2,0.4-0.2,0.7-0.2,1.2c0,0.1,0,0.2,0,0.2v0.1
		v2.8c0,0.6,0.5,1,1,1h6.9c0.6,0,1-0.5,1-1v-2.9l0,0C76.7,71.6,76.7,71.4,76.7,71.1z"/>
	<path class="st1" d="M81.2,69.5c-1.7,0-3.2,1.5-3.2,3.2c0,1.7,1.5,3.2,3.2,3.2s3.2-1.5,3.2-3.4C84.4,71,82.9,69.5,81.2,69.5z
		 M83.1,73.3c-0.5,0-1,0-1.5,0c0,0.6,0,1,0,1.5c-0.4,0-0.7,0-1,0c0-0.5,0-1,0-1.5c-0.6,0-1,0-1.6,0c0-0.4,0-0.7,0-1c0.5,0,1,0,1.5,0
		c0-0.6,0-1,0-1.5c0.4,0,0.7,0,1,0c0,0.5,0,1,0,1.5c0.6,0,1,0,1.5,0C83.1,72.6,83.1,73,83.1,73.3z"/>
	<path class="st1" d="M72.3,66.2c1.4,0,2.4-1.2,2.4-2.4c0-1.4-1.2-2.4-2.4-2.4c-1.3,0-2.4,1.2-2.4,2.4
		C69.8,65.2,70.9,66.2,72.3,66.2z"/>
	<path class="st1" d="M78.6,66.1c1,0,1.7-0.8,1.7-1.7c0-0.9-0.8-1.7-1.7-1.7c-1,0-1.7,0.8-1.7,1.7C76.8,65.3,77.6,66.1,78.6,66.1z"
		/>
	<path class="st1" d="M76.5,68.2c0.2,0.4,0.5,0.7,0.7,1c0.2,0.4,0.4,0.7,0.6,1.2c0.9-1,2.1-1.6,3.4-1.7C80,67.2,77.8,67,76.5,68.2z"
		/>
</g>
<g>
	<path class="st1" d="M54.3,72.7c-0.1-0.5-0.2-0.8-0.5-1.2c-0.2-0.3-0.5-0.6-0.6-0.9c-0.3-0.6-0.9-0.9-1.5-1.1
		c-0.1-0.1-0.2-0.1-0.3-0.2c-0.7-1.2-1.3-2.3-1.9-3.5c-0.1-0.2-0.3-0.3-0.5-0.3c-0.1,0-0.1,0-0.1-0.1c-0.1-0.2-0.3-0.5-0.3-0.7
		c-0.1-0.6-0.3-1-0.9-1.3c-0.2-0.1-0.5-0.1-0.7-0.3c-0.1-0.1-0.1-0.1-0.2-0.1c-0.2,0-0.5,0-0.6,0c-0.3,0-0.6,0.3-0.6,0.7
		c0,0.3,0.2,0.6,0.6,0.6c0.2,0,0.3,0,0.6,0s0.5,0.1,0.5,0.3c0,0.1,0.1,0.2,0.1,0.3c0.5,1.3,0.9,2.7,1.3,3.9c0.1,0.5,0.3,1,0.3,1.6
		c0,0.3-0.1,0.5-0.5,0.6c-0.3,0.1-0.5,0.1-0.8,0.1c-0.9,0.1-1.8-0.1-2.7-0.2c-0.2-0.1-0.3-0.1-0.3-0.3c-0.1-0.8-0.3-1.6-0.1-2.4
		c0-0.1,0.1-0.1,0.1-0.1c0.7-0.2,0.9-0.9,0.6-1.5c-0.2-0.5-0.6-0.5-1-0.5c-1.6,0-3.3,0-4.9,0v-3.9c0-0.3-0.3-0.7-0.7-0.7h-4.9
		c-0.3,0-0.7,0.3-0.7,0.7v1.1h-2.5c-0.3,0-0.5,0.2-0.5,0.5c0,0.3,0.2,0.5,0.5,0.5H33v0.7h-1.2c-0.3,0-0.5,0.2-0.5,0.5
		s0.2,0.5,0.5,0.5h1.3v1c0,0.3,0.3,0.7,0.7,0.7h3.3C37,68,37,68,37,68c-0.1,0.1-0.1,0.1-0.2,0.1c-0.3,0.1-0.5,0.3-0.5,0.6
		c-0.1,0.2,0,0.5,0,0.7s0.1,0.3,0.3,0.5c0.1,0.1,0.1,0.1,0.1,0.2c-0.1,0.7-0.1,1.3-0.1,1.9c0,0.5,0.1,0.8,0.5,0.9
		c0.3,0.1,0.3,0.3,0.3,0.6c0.1,1.2,1.2,2.1,2.3,2.3c1.4,0.1,2.5-0.8,2.7-2c0.1-0.2,0.1-0.5,0.1-0.7c0.1,0,0.1,0,0.1,0
		c1.7,0,3.5,0,5.2,0c0.3,0,0.7-0.1,0.9-0.1c0.1,0,0.1-0.1,0.3-0.1c0,0.1,0,0.3,0,0.3c0,1.3,0.9,2.3,2.1,2.5c1.2,0.3,2.4-0.3,2.9-1.5
		c0.1-0.2,0.1-0.5,0.2-0.8c0-0.2,0-0.5,0-0.6C54.4,72.8,54.3,72.8,54.3,72.7z M40.8,74.5c-0.6,0.3-1.2,0.3-1.7,0
		c-0.5-0.3-0.7-0.7-0.7-1.4c1,0,2.1,0,3.1,0C41.5,73.7,41.2,74.1,40.8,74.5z M53.2,73.7c-0.3,0.6-0.7,0.9-1.5,0.9
		c-0.7,0-1.2-0.3-1.5-0.9c-0.3-0.7-0.1-1.4,0.5-1.8c0.1-0.1,0.2-0.1,0.3-0.1c0.3,0,0.6-0.1,0.9-0.1l0,0c0.1,0,0.2,0,0.3,0
		c0.3-0.1,0.5,0.1,0.7,0.3C53.3,72.6,53.4,73.1,53.2,73.7z"/>
	<g>
		<path class="st1" d="M34.6,70.8h-3.3c-0.3,0-0.5-0.2-0.5-0.5c0-0.3,0.2-0.5,0.5-0.5h3.3c0.3,0,0.5,0.2,0.5,0.5
			C35.2,70.6,35,70.8,34.6,70.8z"/>
	</g>
	<g>
		<path class="st1" d="M31.8,72.7h-1.7c-0.3,0-0.5-0.2-0.5-0.5c0-0.3,0.2-0.5,0.5-0.5h1.7c0.3,0,0.5,0.2,0.5,0.5
			C32.2,72.5,32,72.7,31.8,72.7z"/>
	</g>
	<g>
		<path class="st1" d="M33.6,74.5h-1.8c-0.3,0-0.5-0.2-0.5-0.5c0-0.3,0.2-0.5,0.5-0.5h1.8c0.3,0,0.5,0.2,0.5,0.5
			C34.1,74.3,33.8,74.5,33.6,74.5z"/>
	</g>
</g>
<path class="st1" d="M15.2,66.3c0-0.6-0.5-1.1-1.1-1.1S13,65.7,13,66.3v2.3h-0.5v-2.3c0-0.6-0.5-1.1-1.1-1.1s-1.1,0.5-1.1,1.1v2.3
	H9.8v-2.3c0-0.6-0.5-1.1-1.1-1.1s-1.1,0.5-1.1,1.1v2.3H7v-4c1.6-0.4,2.8-1.9,2.8-3.7c0-2.1-1.7-3.8-3.8-3.8s-3.8,1.7-3.8,3.8
	c0,1.7,1.1,3.1,2.7,3.7v6.3V71v2.6c0,1.3,0.8,2.3,1.7,2.3h6.9c0.9,0,1.7-1,1.7-2.3V71c0-0.1,0-0.1,0-0.2L15.2,66.3L15.2,66.3z
	 M3.1,61c0-1.6,1.3-3,3-3c1.6,0,3,1.3,3,3c0,1.3-0.8,2.4-2,2.8v-2.5c0-0.6-0.5-1.1-1.1-1.1s-1.1,0.5-1.1,1.1v2.4
	C3.8,63.2,3.1,62.2,3.1,61z"/>
</svg>
