<?xml version="1.0" encoding="utf-8"?>
<!-- Generator: Adobe Illustrator 24.2.0, SVG Export Plug-In . SVG Version: 6.00 Build 0)  -->
<svg version="1.1" id="圖層_1" xmlns="http://www.w3.org/2000/svg" xmlns:xlink="http://www.w3.org/1999/xlink" x="0px" y="0px"
	 viewBox="0 0 100 35" style="enable-background:new 0 0 100 35;" xml:space="preserve">
<style type="text/css">
	.st0{display:none;}
	.st1{display:inline;}
	.st2{fill:#E4002B;}
	.st3{display:inline;fill:#FFFFFF;}
	.st4{font-family:'FZLTZHB--B51-0';}
	.st5{font-size:12px;}
	.st6{fill:#FFFFFF;}
</style>
<g id="圖層_1_1_" class="st0">
	<g class="st1">
		<path class="st2" d="M97.5,32.5h-95C1.1,32.5,0,31.4,0,30V5c0-1.4,1.1-2.5,2.5-2.5h95c1.4,0,2.5,1.1,2.5,2.5v25
			C100,31.4,98.9,32.5,97.5,32.5z"/>
	</g>
	<text transform="matrix(1 0 0 1 27.1455 21.772)" class="st3 st4 st5">預訂快取</text>
</g>
<g>
	<path class="st2" d="M97.5,35h-95C1.1,35,0,33.7,0,32.1V2.9C0,1.3,1.1,0,2.5,0h95c1.4,0,2.5,1.3,2.5,2.9v29.2
		C100,33.7,98.9,35,97.5,35z"/>
</g>
<text transform="matrix(1 0 0 1 34.2618 21.772)" class="st6 st4 st5">零接觸外送</text>
<g id="圖層_3" class="st0">
</g>
<g>
	<path class="st6" d="M31.1,21.8c-0.1-0.5-0.2-0.8-0.5-1.2c-0.2-0.3-0.5-0.6-0.6-0.9c-0.3-0.6-0.9-0.9-1.5-1.1
		c-0.1-0.1-0.2-0.1-0.3-0.2c-0.7-1.2-1.3-2.3-1.9-3.5c-0.1-0.2-0.3-0.3-0.5-0.3c-0.1,0-0.1,0-0.1-0.1c-0.1-0.2-0.3-0.5-0.3-0.7
		c-0.1-0.6-0.3-1-0.9-1.3c-0.2-0.1-0.5-0.1-0.7-0.3c-0.1-0.1-0.1-0.1-0.2-0.1c-0.2,0-0.5,0-0.6,0c-0.3,0-0.6,0.3-0.6,0.7
		c0,0.3,0.2,0.6,0.6,0.6c0.2,0,0.3,0,0.6,0s0.5,0.1,0.5,0.3c0,0.1,0.1,0.2,0.1,0.3c0.5,1.3,0.9,2.7,1.3,3.9c0.1,0.5,0.3,1,0.3,1.6
		c0,0.3-0.1,0.5-0.5,0.6c-0.3,0.1-0.5,0.1-0.8,0.1c-0.9,0.1-1.8-0.1-2.7-0.2c-0.2-0.1-0.3-0.1-0.3-0.3c-0.1-0.8-0.3-1.6-0.1-2.4
		c0-0.1,0.1-0.1,0.1-0.1c0.7-0.2,0.9-0.9,0.6-1.5c-0.2-0.5-0.6-0.5-1-0.5c-1.6,0-3.3,0-4.9,0v-3.9c0-0.3-0.3-0.7-0.7-0.7h-4.9
		c-0.3,0-0.7,0.3-0.7,0.7v1.1H7.5c-0.3,0-0.5,0.2-0.5,0.5c0,0.3,0.2,0.5,0.5,0.5h2.4v0.7H8.7c-0.3,0-0.5,0.2-0.5,0.5
		c0,0.3,0.2,0.5,0.5,0.5h1.3v1c0,0.3,0.3,0.7,0.7,0.7h3.3c-0.1,0.1-0.1,0.1-0.1,0.1c-0.1,0.1-0.1,0.1-0.2,0.1
		c-0.3,0.1-0.5,0.3-0.5,0.6c-0.1,0.2,0,0.5,0,0.7c0,0.2,0.1,0.3,0.3,0.5c0.1,0.1,0.1,0.1,0.1,0.2c-0.1,0.7-0.1,1.3-0.1,1.9
		c0,0.5,0.1,0.8,0.5,0.9c0.3,0.1,0.3,0.3,0.3,0.6c0.1,1.2,1.2,2.1,2.3,2.3c1.4,0.1,2.5-0.8,2.7-2c0.1-0.2,0.1-0.5,0.1-0.7
		c0.1,0,0.1,0,0.1,0c1.7,0,3.5,0,5.2,0c0.3,0,0.7-0.1,0.9-0.1c0.1,0,0.1-0.1,0.3-0.1c0,0.1,0,0.3,0,0.3c0,1.3,0.9,2.3,2.1,2.5
		c1.2,0.3,2.4-0.3,2.9-1.5c0.1-0.2,0.1-0.5,0.2-0.8c0-0.2,0-0.5,0-0.6C31.2,21.9,31.1,21.9,31.1,21.8z M17.7,23.5
		c-0.6,0.3-1.2,0.3-1.7,0c-0.5-0.3-0.7-0.7-0.7-1.4c1,0,2.1,0,3.1,0C18.3,22.7,18,23.2,17.7,23.5z M30,22.8
		c-0.3,0.6-0.7,0.9-1.5,0.9c-0.7,0-1.2-0.3-1.5-0.9c-0.3-0.7-0.1-1.4,0.5-1.8c0.1-0.1,0.2-0.1,0.3-0.1c0.3,0,0.6-0.1,0.9-0.1l0,0
		c0.1,0,0.2,0,0.3,0c0.3-0.1,0.5,0.1,0.7,0.3C30.1,21.7,30.2,22.2,30,22.8z"/>
	<g>
		<path class="st6" d="M11.5,19.9H8.1c-0.3,0-0.5-0.2-0.5-0.5c0-0.3,0.2-0.5,0.5-0.5h3.3c0.3,0,0.5,0.2,0.5,0.5S11.8,19.9,11.5,19.9
			z"/>
	</g>
	<g>
		<path class="st6" d="M8.6,21.8H6.9c-0.3,0-0.5-0.2-0.5-0.5c0-0.3,0.2-0.5,0.5-0.5h1.7c0.3,0,0.5,0.2,0.5,0.5
			C9.1,21.5,8.9,21.8,8.6,21.8z"/>
	</g>
	<g>
		<path class="st6" d="M10.4,23.6H8.6c-0.3,0-0.5-0.2-0.5-0.5c0-0.3,0.2-0.5,0.5-0.5h1.8c0.3,0,0.5,0.2,0.5,0.5
			C10.9,23.3,10.7,23.6,10.4,23.6z"/>
	</g>
</g>
</svg>
