<?xml version="1.0" encoding="utf-8"?>
<!-- Generator: Adobe Illustrator 24.2.0, SVG Export Plug-In . SVG Version: 6.00 Build 0)  -->
<svg version="1.1" id="圖層_1" xmlns="http://www.w3.org/2000/svg" xmlns:xlink="http://www.w3.org/1999/xlink" x="0px" y="0px"
	 viewBox="0 0 50 35" style="enable-background:new 0 0 50 35;" xml:space="preserve">
<style type="text/css">
	.st0{display:none;}
	.st1{fill:#EA8966;}
	.st2{fill:#FFFFFF;}
	.st3{font-family:'FZLTZHB--B51-0';}
	.st4{font-size:12px;}
</style>
<g id="圖層_1_1_" class="st0">
</g>
<g id="圖層_2_1_" class="st0">
</g>
<g>
	<path class="st1" d="M47.5,35h-45C1.1,35,0,33.7,0,32.1V2.9C0,1.3,1.1,0,2.5,0h45C48.9,0,50,1.3,50,2.9v29.2
		C50,33.7,48.9,35,47.5,35z"/>
</g>
<text transform="matrix(1 0 0 1 21.8189 21.772)" class="st2 st3 st4">揪團</text>
<g>
	<path class="st2" d="M12.8,19.9c-0.4-2.2-2.6-3.8-4.9-3.5c-1.7,0.2-2.8,1.2-3.4,2.8c-0.2,0.4-0.2,0.7-0.2,1.2c0,0.1,0,0.2,0,0.2
		v0.1v2.7c0,0.6,0.5,1,1,1h6.6c0.6,0,1-0.5,1-1v-2.8l0,0C12.8,20.3,12.8,20.1,12.8,19.9z"/>
	<path class="st2" d="M17.1,18.3c-1.7,0-3.1,1.4-3.1,3.1s1.4,3.1,3.1,3.1s3.1-1.4,3.1-3.3C20.3,19.7,18.8,18.3,17.1,18.3z M19,21.9
		c-0.5,0-1,0-1.4,0c0,0.6,0,1,0,1.4c-0.4,0-0.6,0-1,0c0-0.5,0-1,0-1.4c-0.6,0-1,0-1.5,0c0-0.4,0-0.6,0-1c0.5,0,1,0,1.4,0
		c0-0.6,0-1,0-1.4c0.4,0,0.6,0,1,0c0,0.5,0,1,0,1.4c0.6,0,1,0,1.4,0C19,21.3,19,21.7,19,21.9z"/>
	<path class="st2" d="M8.6,15.1c1.4,0,2.3-1.1,2.3-2.3c0-1.4-1.1-2.3-2.3-2.3c-1.3,0-2.3,1.1-2.3,2.3C6.1,14.1,7.2,15.1,8.6,15.1z"
		/>
	<path class="st2" d="M14.7,15c1,0,1.7-0.8,1.7-1.7s-0.8-1.7-1.7-1.7c-1,0-1.7,0.8-1.7,1.7C12.9,14.2,13.7,15,14.7,15z"/>
	<path class="st2" d="M12.6,17c0.2,0.4,0.5,0.6,0.7,1c0.2,0.4,0.4,0.7,0.6,1.1c0.9-1,2-1.5,3.3-1.7C15.9,16,13.9,15.9,12.6,17z"/>
</g>
</svg>
