<?xml version="1.0" encoding="utf-8"?>
<!-- Generator: Adobe Illustrator 25.2.3, SVG Export Plug-In . SVG Version: 6.00 Build 0)  -->
<svg version="1.1" id="圖層_1" xmlns="http://www.w3.org/2000/svg" xmlns:xlink="http://www.w3.org/1999/xlink" x="0px" y="0px"
	 viewBox="0 0 1313.73 500" style="enable-background:new 0 0 1313.73 500;" xml:space="preserve">
<style type="text/css">
	.st0{fill:#E4002B;}
</style>
<g>
	<g>
		<path class="st0" d="M1313.73,483.14c-6.03,13.13-16.44,16.87-30.49,16.86c-238.67-0.28-1015.84-0.2-1254.5-0.2
			c-20.79,0-28.72-7.95-28.72-28.78c0-42.13-0.01-84.26,0.01-126.4c0.01-17.41,8.16-25.82,25.68-26.6
			c36.45-1.61,65.29-31.91,65.13-68.43c-0.16-36.13-29-66.09-65.13-67.67c-17.48-0.76-25.67-9.21-25.68-26.61
			C0,112.43,0,69.54,0.01,26.65C0.02,8.94,8.78,0.16,26.46,0.16C267.15,0.15,1046.34,0.21,1287.02,0c13.1-0.01,21.2,5.8,26.71,16.81
			C1313.73,172.25,1313.73,327.7,1313.73,483.14z M45.98,361.52c0,31.2,0,61.84,0,92.49c45.36,0,90.17,0,135.73,0
			c0-7.34-0.09-14.33,0.02-21.33c0.22-13.55,9.71-23.54,22.39-23.71c12.97-0.17,22.77,9.95,22.99,23.87
			c0.11,6.98,0.02,13.96,0.02,21.04c167.97,0,873.58,0,1040.64,0c0-136.3,0-272.12,0-407.84c-166.93,0-871.81,0-1038.87,0
			c0,2.44,0,4.4,0,6.36c0,5.05,0.08,10.09-0.03,15.14c-0.31,13.33-9.37,23-21.83,23.41c-12.55,0.42-22.87-9.38-23.47-22.7
			c-0.34-7.42-0.06-14.88-0.06-22.12c-46.72,0-92.23,0-138.06,0c0,15.94,0,31.32,0,46.69c0,15.32,0,30.63,0,45.7
			c55.52,12.86,89.23,58.75,90.8,108.19C137.7,293.2,108.9,345.8,45.98,361.52z"/>
		<path class="st0" d="M227.11,181.81c0,7.55,0.17,15.1-0.04,22.64c-0.37,12.9-10.11,22.66-22.45,22.78
			c-12.64,0.12-22.68-9.82-22.86-23.11c-0.21-14.84-0.2-29.69,0-44.53c0.18-13.31,10.17-23.25,22.82-23.15
			c12.64,0.1,22.26,10.04,22.52,23.48C227.23,167.21,227.11,174.51,227.11,181.81z"/>
		<path class="st0" d="M227.11,318.57c0,7.3,0.16,14.6-0.03,21.89c-0.34,13.3-10.31,23.2-22.95,23.04
			c-12.34-0.16-22.16-9.95-22.36-22.85c-0.23-15.09-0.25-30.2,0.01-45.29c0.22-12.85,10.19-22.6,22.54-22.66
			c12.33-0.05,22.32,9.67,22.74,22.47C227.31,302.97,227.1,310.77,227.11,318.57z"/>
	</g>
	<g>
		<path class="st0" d="M292.59,229.32c6.52-6.92,15.52-23.32,26.98-49.23c11.46-25.9,18.58-48.23,21.35-67.02l31.73,15.12
			c-2.96,15.42-7.32,30.84-13.05,46.26v216.77h-36.18V243.85c-3.76,7.91-9.49,17.99-17.2,30.25L292.59,229.32z M419.8,273.5v-18.68
			h29.66v15.12c0,5.34,2.47,8.01,7.41,8.01h23.72c4.15,0,6.72-0.69,7.71-2.07c0.99-1.38,1.88-6.13,2.67-14.24l27.28,6.23
			c-1.19,13.45-3.56,22.14-7.12,26.09c-3.36,4.15-9.29,6.23-17.79,6.23H462.8c-2.18,2.77-5.14,5.64-8.9,8.6h86v23.13
			c-5.14,5.33-11.86,10.67-20.17,16.01c-8.3,5.14-13.15,7.71-14.53,7.71c4.15,3.56,25.7,5.34,64.65,5.34c1.58,0,2.76,0,3.56,0
			l-8.89,29.65c-35.19-1.78-66.62-7.71-94.3-17.79c-26.5,9.49-59.21,15.42-98.16,17.79l-10.38-29.06c1.97,0,4.45,0,7.41,0
			c25.3,0,47.84-1.88,67.61-5.64c-6.92-3.96-15.03-10.08-24.32-18.38c-11.86,6.32-22.64,10.87-32.32,13.64l-17.49-24.91
			c30.05-5.93,52.68-15.61,67.91-29.06C423.36,296.04,419.8,288.13,419.8,273.5z M388.67,271.72h-22.24v-45.37h18.68v-73.24h57.53
			l3.26-7.71h-72.65V119h199.27v26.39h-88.67l-2.96,7.71h68.8v73.24h20.76v44.78h-19.57c7.31,9.49,13.44,18.49,18.39,26.99
			l-24.61,14.23c-7.71-16.4-17.4-32.81-29.06-49.23l22.54-7.71v-6.53h-66.13c7.31,3.76,13.05,7.12,17.2,10.08l-13.05,18.09
			c-4.15-3.36-12.56-8.99-25.21-16.9l8.6-11.27h-61.09v9.79l21.35,8.6c-5.93,17.4-14.93,32.72-26.98,45.97l-24.02-16.01
			C376.7,290.11,383.33,281.61,388.67,271.72z M515.29,173.57h-95.78v7.41h95.78V173.57z M515.29,195.21h-95.78v8.01h95.78V195.21z
			 M515.29,217.45h-95.78v8.89h95.78V217.45z M444.12,332.21c9.29,6.33,18.38,11.17,27.28,14.53c10.28-3.95,19.17-8.79,26.69-14.53
			H444.12z"/>
		<path class="st0" d="M671.44,321.84c-6.92,25.7-17,46.75-30.25,63.16l-36.18-20.76c15.62-15.62,26.59-33.51,32.92-53.67
			L671.44,321.84z M621.33,302.86l-6.23-31.73c26.69,0.79,52.78,1.19,78.29,1.19c13.64,0,23.82-0.1,30.54-0.29v-12.75h-92.82v-93.11
			h92.82v-12.16H613.32v-29.65h110.61v-12.45h38.84v12.45h113.58v29.65H762.77v12.16h93.71v93.11h-15.42
			c12.85,9.29,26.29,21.05,40.33,35.29l-26.09,24.02c-8.9-13.05-14.53-19.57-16.91-19.57C804.39,300.39,732.03,301.67,621.33,302.86
			z M723.93,202.33v-11.57h-56.34v11.57H723.93z M723.93,234.65V221.9h-56.34v12.75H723.93z M715.63,311.46v33.8
			c0,7.12,3.36,10.68,10.08,10.68h41.22c6.32,0,10.47-1.68,12.45-5.04c1.79-3.56,2.97-11.66,3.56-24.31l36.17,10.97
			c-1.58,13.44-5.04,25.21-10.37,35.29c-5.34,9.88-16.51,14.83-33.51,14.83h-63.16c-12.65,0-21.55-2.48-26.69-7.42
			c-4.94-4.74-7.41-13.93-7.41-27.58v-41.22H715.63z M747.06,350.9c-5.74-12.65-13.15-25.21-22.24-37.66l28.47-11.27
			c10.87,12.06,19.17,23.13,24.91,33.21L747.06,350.9z M820.01,202.33v-11.57h-57.23v11.57H820.01z M820.01,234.65V221.9h-57.23
			v12.75H820.01z M762.77,259.27v12.46h26.1c9.68,0,18.08-0.1,25.21-0.3l-11.27-12.16H762.77z M849.07,385.29
			c-7.71-19.37-18.97-38.45-33.8-57.23l29.66-15.72c14.43,16.01,27.38,33.51,38.85,52.49L849.07,385.29z"/>
		<path class="st0" d="M988.62,171.19h33.51c9.69-20.36,16.11-40.33,19.28-59.9l38.55,2.07c-4.75,23.53-10.18,42.8-16.31,57.82
			h49.82l-19.87-13.34c15.42-12.05,26.98-25.8,34.7-41.22l31.13,17.49c-6.72,13.25-15.13,25.61-25.21,37.07h41.52v30.84H1050.9
			c-2.18,5.34-5.34,11.57-9.49,18.68h148.86v32.62h-60.2c16.21,15.23,38.15,25.31,65.83,30.25l-17.5,36.47
			c-9.49-3.16-20.56-8.89-33.21-17.2c0,36.18-3.07,59.41-9.19,69.69c-5.93,10.08-24.12,15.13-54.56,15.13
			c-7.52,0-14.04-0.2-19.57-0.6l-6.82-36.48c11.07,1.19,20.46,1.78,28.17,1.78c0.79,0,1.58,0,2.38,0
			c10.28-0.2,16.11-4.84,17.49-13.93c1.38-9.09,2.08-18.19,2.08-27.28h-45.07c-5.34,18.78-20.46,35.78-45.37,51.01
			c-24.91,15.22-49.63,24.81-74.13,28.76l-22.54-34.99c20.17-2.18,40.22-7.61,60.19-16.31c19.77-8.7,32.42-18.09,37.96-28.17h-40.33
			v-13.94c-10.08,7.91-21.45,14.83-34.1,20.76l-25.5-34.4c24.91-6.92,44.28-17,58.12-30.25H922.2v-32.62h75.62
			c4.94-6.32,8.79-12.55,11.56-18.68h-72.65v-30.84h37.66c-8.11-11.46-17.89-22.83-29.36-34.1l27.87-21.05
			c9.69,8.7,22.04,21.45,37.07,38.25L988.62,171.19z M1021.24,253.34c-6.52,10.08-14.13,18.49-22.83,25.21h113.87
			c-7.52-6.13-15.52-14.53-24.02-25.21H1021.24z"/>
	</g>
</g>
</svg>
